<svg width="280" height="66" viewBox="0 0 280 66" fill="none" xmlns="http://www.w3.org/2000/svg">
<path d="M0 35V0H30V5H35V15H30V20H35V30H30V35H0ZM10 15H25V5H10V15ZM10 30H25V20H10V30ZM45 35V30H40V0H50V30H65V0H75V30H70V35H45ZM90 35V30H85V25H80V10H85V5H90V0H110V5H115V10H105V5H95V10H90V25H95V30H105V25H115V30H110V35H90ZM120 35V0H130V15H135V10H140V5H145V0H155V5H150V10H145V15H140V20H145V25H150V30H155V35H140V30H135V25H130V35H120ZM160 35V0H195V5H170V15H190V20H170V30H195V35H160ZM215 35V5H205V0H235V5H225V35H215ZM245 35V30H240V25H250V30H265V20H245V15H240V5H245V0H270V5H275V10H265V5H250V15H270V20H275V30H270V35H245Z" fill="#CACACA"/>
<path d="M69.16 51.12C68.28 51.12 67.36 50.48 66.4 49.2C65.4667 47.92 65 46.8 65 45.84C65 44.88 65.9867 43.0933 67.96 40.48C69.9333 37.84 72.24 35.1733 74.88 32.48C77.52 29.7867 80.3067 27.4133 83.24 25.36C86.2 23.28 88.5333 22.24 90.24 22.24C91.2533 22.24 91.8533 22.9867 92.04 24.48V24.56C92.04 25.3867 91.2133 26.9733 89.56 29.32C87.9067 31.6667 86.6133 33.3733 85.68 34.44C85.44 34.76 85.32 34.9733 85.32 35.08C85.32 35.16 85.3733 35.2 85.48 35.2C85.6133 35.2 85.9067 35.1333 86.36 35C88.3333 34.36 90.6933 33.28 93.44 31.76C96.1867 30.24 98.4 28.92 100.08 27.8C101.787 26.68 102.747 26.0267 102.96 25.84C103.2 25.6533 103.32 25.5333 103.32 25.48C103.32 25.4 103.267 25.36 103.16 25.36C103.08 25.36 102.4 25.6533 101.12 26.24C99.8667 26.8267 99.1067 27.12 98.84 27.12C98.5733 27.12 98.1867 26.9867 97.68 26.72C97.2 26.4267 96.96 26.0667 96.96 25.64C96.96 24.92 98.2533 24.0667 100.84 23.08C103.453 22.0933 105.187 21.6 106.04 21.6C107.933 21.6 108.88 22.08 108.88 23.04C108.88 24.2133 107.88 25.6267 105.88 27.28C103.88 28.9067 101.52 30.4267 98.8 31.84C93.84 34.4267 90.44 36.0933 88.6 36.84C88.4133 36.9467 88.32 37.08 88.32 37.24C92.0267 45.6933 93.88 50.52 93.88 51.72C93.88 52.4667 93.52 53.0533 92.8 53.48C92.1067 53.9067 91.1067 54.12 89.8 54.12C88.4933 54.12 87.2533 53.7067 86.08 52.88C84.9067 52.0533 83.9867 51.0533 83.32 49.88C82.68 48.7067 82.1333 47.5333 81.68 46.36C81.2533 45.1867 80.8933 44.1867 80.6 43.36C80.3333 42.5333 80.12 42.12 79.96 42.12C79.8267 42.12 79.68 42.2 79.52 42.36C79.36 42.4933 78.9467 42.9067 78.28 43.6C77.64 44.2667 76.92 45 76.12 45.8C75.3467 46.5733 74.5067 47.3733 73.6 48.2C71.5467 50.1467 70.0667 51.12 69.16 51.12ZM106.838 49.4C106.838 49.5333 106.931 49.6267 107.118 49.68C107.305 49.68 107.945 49.3067 109.038 48.56C110.158 47.7867 110.785 47.36 110.918 47.28C111.078 47.2 111.225 47.16 111.358 47.16C111.731 47.16 111.918 47.3467 111.918 47.72C111.918 48.0667 110.971 48.8533 109.078 50.08C107.211 51.3067 105.891 51.92 105.118 51.92C104.798 51.92 104.451 51.7867 104.078 51.52C103.731 51.2533 103.558 50.9467 103.558 50.6C103.558 50.2267 103.651 49.8267 103.838 49.4C104.025 48.9733 104.118 48.6933 104.118 48.56C104.118 48.4 104.078 48.32 103.998 48.32C103.918 48.32 103.838 48.3467 103.758 48.4C101.171 50.3467 99.2648 51.32 98.0381 51.32C97.3448 51.32 96.7981 51.0667 96.3981 50.56C95.9981 50.0533 95.7581 49.5467 95.6781 49.04L95.5981 48.28C95.5981 47.4 95.9315 46.3867 96.5981 45.24C97.2915 44.0667 98.1848 42.96 99.2781 41.92C100.398 40.8533 101.758 39.96 103.358 39.24C104.985 38.52 106.638 38.16 108.318 38.16C109.225 38.16 110.065 38.4 110.838 38.88C111.638 39.36 112.038 39.92 112.038 40.56C112.038 41.2 111.411 41.5867 110.158 41.72C109.225 41.9333 107.678 42.7067 105.518 44.04C103.385 45.3467 102.318 46.3467 102.318 47.04C102.318 47.3333 102.465 47.48 102.758 47.48C103.291 47.48 104.545 46.72 106.518 45.2C108.518 43.68 109.718 42.92 110.118 42.92C110.518 42.92 110.718 43.16 110.718 43.64C110.718 43.9867 110.585 44.32 110.318 44.64C110.078 44.9333 109.905 45.1467 109.798 45.28C109.585 45.5467 109.038 46.1467 108.158 47.08C107.278 47.9867 106.838 48.76 106.838 49.4ZM119.852 36.08C120.039 36.08 120.212 36.1733 120.372 36.36C120.532 36.52 120.612 36.72 120.612 36.96C120.612 37.1733 120.479 37.4533 120.212 37.8C119.172 39.08 118.479 39.8933 118.132 40.24C117.812 40.56 117.652 40.7733 117.652 40.88C117.652 40.9867 117.732 41.04 117.892 41.04C118.079 41.04 118.799 40.8133 120.052 40.36C121.305 39.88 122.132 39.64 122.532 39.64C122.932 39.64 123.345 39.8133 123.772 40.16C124.199 40.48 124.412 40.9067 124.412 41.44C124.412 41.9467 123.599 43.1333 121.972 45C120.345 46.84 119.532 48.04 119.532 48.6C119.532 48.7067 119.572 48.76 119.652 48.76C119.785 48.76 120.025 48.68 120.372 48.52C120.719 48.3333 120.932 48.24 121.012 48.24C121.305 48.24 121.452 48.3467 121.452 48.56C121.452 49.3867 120.799 50.2133 119.492 51.04C118.185 51.8667 117.079 52.28 116.172 52.28C115.292 52.28 114.572 52.0267 114.012 51.52C113.452 51.04 113.172 50.3867 113.172 49.56C113.172 48.7333 113.572 47.8133 114.372 46.8C115.199 45.76 116.039 45.0267 116.892 44.6C117.772 44.1733 118.212 43.8267 118.212 43.56C118.212 43.48 118.199 43.4267 118.172 43.4C116.999 43.88 116.039 44.12 115.292 44.12C113.825 44.12 113.092 43.6933 113.092 42.84C113.092 41.8533 113.945 40.56 115.652 38.96C117.359 37.36 118.759 36.4 119.852 36.08ZM124.289 50.8C123.782 50.8 123.355 50.5867 123.009 50.16C122.662 49.7333 122.489 49.2 122.489 48.56C122.489 47.8933 122.782 47.0933 123.369 46.16C123.955 45.2267 124.662 44.36 125.489 43.56C127.249 41.9333 128.809 40.68 130.169 39.8L131.049 39.2C131.475 39.0133 131.915 38.92 132.369 38.92C132.849 38.92 133.275 39.08 133.649 39.4C134.022 39.6933 134.209 40.04 134.209 40.44C134.209 40.84 134.142 41.2 134.009 41.52C133.875 41.84 133.729 42.0933 133.569 42.28C133.142 42.8933 132.889 43.2533 132.809 43.36C132.729 43.44 132.689 43.5333 132.689 43.64C132.689 43.72 132.742 43.76 132.849 43.76C132.982 43.76 133.542 43.3733 134.529 42.6C137.462 40.2 139.569 39 140.849 39C141.355 39 141.782 39.16 142.129 39.48C142.502 39.7733 142.689 40.1067 142.689 40.48C142.689 40.8533 142.609 41.1867 142.449 41.48C142.289 41.7467 142.062 42.0533 141.769 42.4C141.289 42.96 141.049 43.3067 141.049 43.44C141.049 43.5467 141.142 43.6 141.329 43.6C141.542 43.6 142.409 42.9867 143.929 41.76C145.449 40.5333 146.502 39.92 147.089 39.92C147.675 39.92 148.129 40.16 148.449 40.64C148.795 41.0933 148.969 41.56 148.969 42.04C148.969 42.52 148.289 43.6267 146.929 45.36C145.569 47.0667 144.889 48.04 144.889 48.28C144.889 48.52 144.982 48.64 145.169 48.64C145.329 48.6133 145.515 48.5333 145.729 48.4C145.942 48.2667 146.142 48.2 146.329 48.2C146.675 48.2 146.849 48.3467 146.849 48.64C146.849 49.52 146.355 50.2933 145.369 50.96C144.382 51.6 143.382 51.92 142.369 51.92C140.235 51.92 139.169 50.9867 139.169 49.12C139.169 48.7467 139.275 48.28 139.489 47.72C139.729 47.16 139.969 46.76 140.209 46.52C140.289 46.36 140.329 46.2533 140.329 46.2C140.329 46.12 140.275 46.08 140.169 46.08C140.089 46.08 139.982 46.12 139.849 46.2C139.715 46.2533 139.142 46.7333 138.129 47.64C135.355 50.12 133.449 51.36 132.409 51.36C131.849 51.36 131.422 51.16 131.129 50.76C130.835 50.3333 130.689 49.8933 130.689 49.44C130.689 48.6133 131.089 47.7067 131.889 46.72C131.969 46.5867 132.009 46.4667 132.009 46.36C132.009 46.2267 131.955 46.16 131.849 46.16C131.742 46.16 131.622 46.2133 131.489 46.32C127.809 49.3067 125.409 50.8 124.289 50.8ZM159.612 49.4C159.612 49.5333 159.705 49.6267 159.892 49.68C160.078 49.68 160.718 49.3067 161.812 48.56C162.932 47.7867 163.558 47.36 163.692 47.28C163.852 47.2 163.998 47.16 164.132 47.16C164.505 47.16 164.692 47.3467 164.692 47.72C164.692 48.0667 163.745 48.8533 161.852 50.08C159.985 51.3067 158.665 51.92 157.892 51.92C157.572 51.92 157.225 51.7867 156.852 51.52C156.505 51.2533 156.332 50.9467 156.332 50.6C156.332 50.2267 156.425 49.8267 156.612 49.4C156.798 48.9733 156.892 48.6933 156.892 48.56C156.892 48.4 156.852 48.32 156.772 48.32C156.692 48.32 156.612 48.3467 156.532 48.4C153.945 50.3467 152.038 51.32 150.812 51.32C150.118 51.32 149.572 51.0667 149.172 50.56C148.772 50.0533 148.532 49.5467 148.452 49.04L148.372 48.28C148.372 47.4 148.705 46.3867 149.372 45.24C150.065 44.0667 150.958 42.96 152.052 41.92C153.172 40.8533 154.532 39.96 156.132 39.24C157.758 38.52 159.412 38.16 161.092 38.16C161.998 38.16 162.838 38.4 163.612 38.88C164.412 39.36 164.812 39.92 164.812 40.56C164.812 41.2 164.185 41.5867 162.932 41.72C161.998 41.9333 160.452 42.7067 158.292 44.04C156.158 45.3467 155.092 46.3467 155.092 47.04C155.092 47.3333 155.238 47.48 155.532 47.48C156.065 47.48 157.318 46.72 159.292 45.2C161.292 43.68 162.492 42.92 162.892 42.92C163.292 42.92 163.492 43.16 163.492 43.64C163.492 43.9867 163.358 44.32 163.092 44.64C162.852 44.9333 162.678 45.1467 162.572 45.28C162.358 45.5467 161.812 46.1467 160.932 47.08C160.052 47.9867 159.612 48.76 159.612 49.4ZM164.065 47.36C164.065 46.24 164.759 44.9333 166.145 43.44C167.559 41.9467 168.985 40.72 170.425 39.76C171.892 38.7733 172.812 38.28 173.185 38.28C173.559 38.28 173.839 38.5467 174.025 39.08C174.239 39.6133 174.345 40.08 174.345 40.48C174.345 40.8533 174.319 41.1067 174.265 41.24C174.239 41.3733 174.199 41.4667 174.145 41.52C174.119 41.5733 174.052 41.64 173.945 41.72C173.865 41.8 173.772 41.8933 173.665 42C173.585 42.08 173.145 42.5867 172.345 43.52C171.545 44.4267 171.092 44.96 170.985 45.12C170.905 45.2533 170.865 45.44 170.865 45.68C170.865 45.8933 170.959 46 171.145 46C171.332 46 171.492 45.9467 171.625 45.84C172.612 45.2267 174.865 43.48 178.385 40.6C179.105 40.0933 179.585 39.84 179.825 39.84C180.065 39.84 180.305 39.96 180.545 40.2C180.812 40.4133 180.945 40.5867 180.945 40.72C180.945 41.4933 180.105 43.08 178.425 45.48C176.772 47.8533 174.719 50.6267 172.265 53.8C169.812 57 168.185 59.2 167.385 60.4C166.585 61.6 165.812 62.2 165.065 62.2C164.692 62.2 164.319 62 163.945 61.6C163.572 61.2267 163.385 60.76 163.385 60.2C163.385 59.6667 163.425 59.16 163.505 58.68C163.585 58.2267 163.839 57.6267 164.265 56.88C164.692 56.1333 165.252 55.32 165.945 54.44C166.639 53.5867 167.252 52.8267 167.785 52.16C168.345 51.52 168.972 50.8133 169.665 50.04C170.385 49.2667 170.785 48.8267 170.865 48.72C170.972 48.5867 171.025 48.48 171.025 48.4C171.025 48.32 170.985 48.28 170.905 48.28C170.852 48.28 170.239 48.6 169.065 49.24C167.919 49.88 166.972 50.2 166.225 50.2C165.505 50.2 164.959 49.84 164.585 49.12C164.239 48.4 164.065 47.8133 164.065 47.36ZM192.051 41.52C192.051 42.24 192.478 42.6 193.331 42.6C194.131 42.6 195.011 42.4 195.971 42C196.931 41.6 197.451 41.4 197.531 41.4C197.611 41.4 197.691 41.4667 197.771 41.6C197.878 41.7333 197.931 41.8667 197.931 42C197.931 42.2933 197.305 42.68 196.051 43.16C194.825 43.6133 193.931 43.84 193.371 43.84C192.811 43.84 192.411 43.84 192.171 43.84C191.958 43.8133 191.785 43.9467 191.651 44.24C189.678 47.9467 187.718 50.28 185.771 51.24C184.918 51.6667 184.011 51.88 183.051 51.88C182.118 51.88 181.345 51.5733 180.731 50.96C180.145 50.32 179.851 49.32 179.851 47.96C179.851 46.0667 180.465 44.3067 181.691 42.68C182.945 41.0267 184.358 39.7867 185.931 38.96C187.505 38.1333 188.931 37.72 190.211 37.72C192.371 37.96 193.451 38.6133 193.451 39.68C193.451 39.9733 193.371 40.24 193.211 40.48C193.078 40.6933 192.958 40.8267 192.851 40.88C192.771 40.9067 192.665 40.9333 192.531 40.96C192.211 41.04 192.051 41.2267 192.051 41.52ZM188.771 43.36C187.918 44 187.078 44.8133 186.251 45.8C185.451 46.7867 185.051 47.6 185.051 48.24C185.051 48.8533 185.225 49.16 185.571 49.16C186.105 49.16 187.078 48.3467 188.491 46.72C189.931 45.0667 190.651 43.7067 190.651 42.64C190.651 42.48 190.545 42.4 190.331 42.4C190.145 42.4 189.625 42.72 188.771 43.36ZM200.291 48.6C198.691 49.5867 197.397 50.08 196.411 50.08C195.424 50.08 194.677 49.7333 194.171 49.04C193.664 48.3467 193.411 47.72 193.411 47.16C193.411 46.6 193.584 45.96 193.931 45.24C194.277 44.52 194.811 43.72 195.531 42.84C196.277 41.96 197.131 41.1333 198.091 40.36C199.051 39.5867 200.224 38.9467 201.611 38.44C203.024 37.9067 204.491 37.64 206.011 37.64C206.651 37.64 207.384 37.88 208.211 38.36C209.037 38.8133 209.451 39.3733 209.451 40.04C209.451 40.4933 209.077 40.8133 208.331 41C206.304 41.56 204.304 42.4267 202.331 43.6C200.384 44.7467 199.411 45.8133 199.411 46.8C199.411 47.0667 199.531 47.2 199.771 47.2C200.624 47.2 202.171 46.28 204.411 44.44C206.677 42.6 207.851 41.68 207.931 41.68C208.304 41.68 208.491 41.9333 208.491 42.44C208.491 43.6133 207.891 45.4533 206.691 47.96C205.491 50.4667 204.011 53 202.251 55.56C200.517 58.1467 198.504 60.4133 196.211 62.36C193.917 64.3067 191.811 65.28 189.891 65.28C189.597 65.28 189.251 64.9733 188.851 64.36C188.424 63.7733 188.211 63.2933 188.211 62.92C188.211 62.5467 188.224 62.32 188.251 62.24C188.517 61.28 190.237 59.64 193.411 57.32C194.717 56.3867 196.011 55.4133 197.291 54.4C198.571 53.4133 199.651 52.3467 200.531 51.2C201.411 50.08 201.851 49.0267 201.851 48.04C201.851 47.9867 201.757 47.96 201.571 47.96C201.384 47.96 200.957 48.1733 200.291 48.6ZM207.188 51.44C206.788 51.0667 206.588 50.5867 206.588 50C206.588 48.1333 207.695 46.0133 209.908 43.64C212.148 41.2667 214.228 39.9067 216.148 39.56C217.348 39.56 217.948 40.2667 217.948 41.68C217.948 42.1333 217.348 43.2 216.148 44.88C214.948 46.56 213.575 48.1733 212.028 49.72C210.482 51.2667 209.388 52.04 208.748 52.04C208.108 52.04 207.588 51.84 207.188 51.44ZM218.668 38.28C219.948 38.1467 221.002 37.6 221.828 36.64C222.655 35.6533 223.068 34.8133 223.068 34.12C223.068 33.0267 222.522 32.48 221.428 32.48C220.682 32.48 219.802 32.8133 218.788 33.48C217.775 34.1467 217.202 35.12 217.068 36.4L217.108 36.84C217.162 37.16 217.322 37.48 217.588 37.8C217.855 38.12 218.215 38.28 218.668 38.28Z" fill="#A8A8A8"/>
</svg>
