<svg width="159" height="45" viewBox="0 0 159 45" fill="none" xmlns="http://www.w3.org/2000/svg">
<path d="M4.16 30.12C3.28 30.12 2.36 29.48 1.4 28.2C0.466667 26.92 1.49012e-08 25.8 1.49012e-08 24.84C1.49012e-08 23.88 0.986667 22.0933 2.96 19.48C4.93333 16.84 7.24 14.1733 9.88 11.48C12.52 8.78667 15.3067 6.41333 18.24 4.36C21.2 2.28 23.5333 1.24 25.24 1.24C26.2533 1.24 26.8533 1.98666 27.04 3.48V3.56C27.04 4.38667 26.2133 5.97333 24.56 8.32C22.9067 10.6667 21.6133 12.3733 20.68 13.44C20.44 13.76 20.32 13.9733 20.32 14.08C20.32 14.16 20.3733 14.2 20.48 14.2C20.6133 14.2 20.9067 14.1333 21.36 14C23.3333 13.36 25.6933 12.28 28.44 10.76C31.1867 9.24 33.4 7.92 35.08 6.8C36.7867 5.68 37.7467 5.02667 37.96 4.84C38.2 4.65333 38.32 4.53333 38.32 4.48C38.32 4.4 38.2667 4.36 38.16 4.36C38.08 4.36 37.4 4.65333 36.12 5.24C34.8667 5.82667 34.1067 6.12 33.84 6.12C33.5733 6.12 33.1867 5.98667 32.68 5.72C32.2 5.42667 31.96 5.06667 31.96 4.64C31.96 3.92 33.2533 3.06667 35.84 2.08C38.4533 1.09333 40.1867 0.599999 41.04 0.599999C42.9333 0.599999 43.88 1.08 43.88 2.04C43.88 3.21333 42.88 4.62667 40.88 6.28C38.88 7.90667 36.52 9.42667 33.8 10.84C28.84 13.4267 25.44 15.0933 23.6 15.84C23.4133 15.9467 23.32 16.08 23.32 16.24C27.0267 24.6933 28.88 29.52 28.88 30.72C28.88 31.4667 28.52 32.0533 27.8 32.48C27.1067 32.9067 26.1067 33.12 24.8 33.12C23.4933 33.12 22.2533 32.7067 21.08 31.88C19.9067 31.0533 18.9867 30.0533 18.32 28.88C17.68 27.7067 17.1333 26.5333 16.68 25.36C16.2533 24.1867 15.8933 23.1867 15.6 22.36C15.3333 21.5333 15.12 21.12 14.96 21.12C14.8267 21.12 14.68 21.2 14.52 21.36C14.36 21.4933 13.9467 21.9067 13.28 22.6C12.64 23.2667 11.92 24 11.12 24.8C10.3467 25.5733 9.50667 26.3733 8.6 27.2C6.54667 29.1467 5.06667 30.12 4.16 30.12ZM41.8381 28.4C41.8381 28.5333 41.9315 28.6267 42.1181 28.68C42.3048 28.68 42.9448 28.3067 44.0381 27.56C45.1581 26.7867 45.7848 26.36 45.9181 26.28C46.0781 26.2 46.2248 26.16 46.3581 26.16C46.7315 26.16 46.9181 26.3467 46.9181 26.72C46.9181 27.0667 45.9715 27.8533 44.0781 29.08C42.2115 30.3067 40.8915 30.92 40.1181 30.92C39.7981 30.92 39.4515 30.7867 39.0781 30.52C38.7315 30.2533 38.5581 29.9467 38.5581 29.6C38.5581 29.2267 38.6515 28.8267 38.8381 28.4C39.0248 27.9733 39.1181 27.6933 39.1181 27.56C39.1181 27.4 39.0781 27.32 38.9981 27.32C38.9181 27.32 38.8381 27.3467 38.7581 27.4C36.1715 29.3467 34.2648 30.32 33.0381 30.32C32.3448 30.32 31.7981 30.0667 31.3981 29.56C30.9981 29.0533 30.7581 28.5467 30.6781 28.04L30.5981 27.28C30.5981 26.4 30.9315 25.3867 31.5981 24.24C32.2915 23.0667 33.1848 21.96 34.2781 20.92C35.3981 19.8533 36.7581 18.96 38.3581 18.24C39.9848 17.52 41.6381 17.16 43.3181 17.16C44.2248 17.16 45.0648 17.4 45.8381 17.88C46.6381 18.36 47.0381 18.92 47.0381 19.56C47.0381 20.2 46.4115 20.5867 45.1581 20.72C44.2248 20.9333 42.6781 21.7067 40.5181 23.04C38.3848 24.3467 37.3181 25.3467 37.3181 26.04C37.3181 26.3333 37.4648 26.48 37.7581 26.48C38.2915 26.48 39.5448 25.72 41.5181 24.2C43.5181 22.68 44.7181 21.92 45.1181 21.92C45.5181 21.92 45.7181 22.16 45.7181 22.64C45.7181 22.9867 45.5848 23.32 45.3181 23.64C45.0781 23.9333 44.9048 24.1467 44.7981 24.28C44.5848 24.5467 44.0381 25.1467 43.1581 26.08C42.2781 26.9867 41.8381 27.76 41.8381 28.4ZM54.8519 15.08C55.0385 15.08 55.2119 15.1733 55.3719 15.36C55.5319 15.52 55.6119 15.72 55.6119 15.96C55.6119 16.1733 55.4785 16.4533 55.2119 16.8C54.1719 18.08 53.4785 18.8933 53.1319 19.24C52.8119 19.56 52.6519 19.7733 52.6519 19.88C52.6519 19.9867 52.7319 20.04 52.8919 20.04C53.0785 20.04 53.7985 19.8133 55.0519 19.36C56.3052 18.88 57.1319 18.64 57.5319 18.64C57.9319 18.64 58.3452 18.8133 58.7719 19.16C59.1985 19.48 59.4119 19.9067 59.4119 20.44C59.4119 20.9467 58.5985 22.1333 56.9719 24C55.3452 25.84 54.5319 27.04 54.5319 27.6C54.5319 27.7067 54.5719 27.76 54.6519 27.76C54.7852 27.76 55.0252 27.68 55.3719 27.52C55.7185 27.3333 55.9319 27.24 56.0119 27.24C56.3052 27.24 56.4519 27.3467 56.4519 27.56C56.4519 28.3867 55.7985 29.2133 54.4919 30.04C53.1852 30.8667 52.0785 31.28 51.1719 31.28C50.2919 31.28 49.5719 31.0267 49.0119 30.52C48.4519 30.04 48.1719 29.3867 48.1719 28.56C48.1719 27.7333 48.5719 26.8133 49.3719 25.8C50.1985 24.76 51.0385 24.0267 51.8919 23.6C52.7719 23.1733 53.2119 22.8267 53.2119 22.56C53.2119 22.48 53.1985 22.4267 53.1719 22.4C51.9985 22.88 51.0385 23.12 50.2919 23.12C48.8252 23.12 48.0919 22.6933 48.0919 21.84C48.0919 20.8533 48.9452 19.56 50.6519 17.96C52.3585 16.36 53.7585 15.4 54.8519 15.08ZM59.2888 29.8C58.7821 29.8 58.3554 29.5867 58.0088 29.16C57.6621 28.7333 57.4888 28.2 57.4888 27.56C57.4888 26.8933 57.7821 26.0933 58.3688 25.16C58.9554 24.2267 59.6621 23.36 60.4888 22.56C62.2488 20.9333 63.8088 19.68 65.1688 18.8L66.0488 18.2C66.4754 18.0133 66.9154 17.92 67.3688 17.92C67.8488 17.92 68.2754 18.08 68.6488 18.4C69.0221 18.6933 69.2088 19.04 69.2088 19.44C69.2088 19.84 69.1421 20.2 69.0088 20.52C68.8754 20.84 68.7288 21.0933 68.5688 21.28C68.1421 21.8933 67.8888 22.2533 67.8088 22.36C67.7288 22.44 67.6888 22.5333 67.6888 22.64C67.6888 22.72 67.7421 22.76 67.8488 22.76C67.9821 22.76 68.5421 22.3733 69.5288 21.6C72.4621 19.2 74.5688 18 75.8488 18C76.3554 18 76.7821 18.16 77.1288 18.48C77.5021 18.7733 77.6888 19.1067 77.6888 19.48C77.6888 19.8533 77.6088 20.1867 77.4488 20.48C77.2888 20.7467 77.0621 21.0533 76.7688 21.4C76.2888 21.96 76.0488 22.3067 76.0488 22.44C76.0488 22.5467 76.1421 22.6 76.3288 22.6C76.5421 22.6 77.4088 21.9867 78.9288 20.76C80.4488 19.5333 81.5021 18.92 82.0888 18.92C82.6754 18.92 83.1288 19.16 83.4488 19.64C83.7954 20.0933 83.9688 20.56 83.9688 21.04C83.9688 21.52 83.2888 22.6267 81.9288 24.36C80.5688 26.0667 79.8888 27.04 79.8888 27.28C79.8888 27.52 79.9821 27.64 80.1688 27.64C80.3288 27.6133 80.5154 27.5333 80.7288 27.4C80.9421 27.2667 81.1421 27.2 81.3288 27.2C81.6754 27.2 81.8488 27.3467 81.8488 27.64C81.8488 28.52 81.3554 29.2933 80.3688 29.96C79.3821 30.6 78.3821 30.92 77.3688 30.92C75.2354 30.92 74.1688 29.9867 74.1688 28.12C74.1688 27.7467 74.2754 27.28 74.4888 26.72C74.7288 26.16 74.9688 25.76 75.2088 25.52C75.2888 25.36 75.3288 25.2533 75.3288 25.2C75.3288 25.12 75.2754 25.08 75.1688 25.08C75.0888 25.08 74.9821 25.12 74.8488 25.2C74.7154 25.2533 74.1421 25.7333 73.1288 26.64C70.3554 29.12 68.4488 30.36 67.4088 30.36C66.8488 30.36 66.4221 30.16 66.1288 29.76C65.8354 29.3333 65.6888 28.8933 65.6888 28.44C65.6888 27.6133 66.0888 26.7067 66.8888 25.72C66.9688 25.5867 67.0088 25.4667 67.0088 25.36C67.0088 25.2267 66.9554 25.16 66.8488 25.16C66.7421 25.16 66.6221 25.2133 66.4888 25.32C62.8088 28.3067 60.4088 29.8 59.2888 29.8ZM94.6116 28.4C94.6116 28.5333 94.7049 28.6267 94.8916 28.68C95.0782 28.68 95.7182 28.3067 96.8116 27.56C97.9316 26.7867 98.5582 26.36 98.6916 26.28C98.8516 26.2 98.9982 26.16 99.1316 26.16C99.5049 26.16 99.6916 26.3467 99.6916 26.72C99.6916 27.0667 98.7449 27.8533 96.8516 29.08C94.9849 30.3067 93.6649 30.92 92.8916 30.92C92.5716 30.92 92.2249 30.7867 91.8516 30.52C91.5049 30.2533 91.3316 29.9467 91.3316 29.6C91.3316 29.2267 91.4249 28.8267 91.6116 28.4C91.7982 27.9733 91.8916 27.6933 91.8916 27.56C91.8916 27.4 91.8516 27.32 91.7716 27.32C91.6916 27.32 91.6116 27.3467 91.5316 27.4C88.9449 29.3467 87.0382 30.32 85.8116 30.32C85.1182 30.32 84.5716 30.0667 84.1716 29.56C83.7716 29.0533 83.5316 28.5467 83.4516 28.04L83.3716 27.28C83.3716 26.4 83.7049 25.3867 84.3716 24.24C85.0649 23.0667 85.9582 21.96 87.0516 20.92C88.1716 19.8533 89.5316 18.96 91.1316 18.24C92.7582 17.52 94.4116 17.16 96.0916 17.16C96.9982 17.16 97.8382 17.4 98.6116 17.88C99.4116 18.36 99.8116 18.92 99.8116 19.56C99.8116 20.2 99.1849 20.5867 97.9316 20.72C96.9982 20.9333 95.4516 21.7067 93.2916 23.04C91.1582 24.3467 90.0916 25.3467 90.0916 26.04C90.0916 26.3333 90.2382 26.48 90.5316 26.48C91.0649 26.48 92.3182 25.72 94.2916 24.2C96.2916 22.68 97.4916 21.92 97.8916 21.92C98.2916 21.92 98.4916 22.16 98.4916 22.64C98.4916 22.9867 98.3582 23.32 98.0916 23.64C97.8516 23.9333 97.6782 24.1467 97.5716 24.28C97.3582 24.5467 96.8116 25.1467 95.9316 26.08C95.0516 26.9867 94.6116 27.76 94.6116 28.4ZM99.0653 26.36C99.0653 25.24 99.7586 23.9333 101.145 22.44C102.559 20.9467 103.985 19.72 105.425 18.76C106.892 17.7733 107.812 17.28 108.185 17.28C108.559 17.28 108.839 17.5467 109.025 18.08C109.239 18.6133 109.345 19.08 109.345 19.48C109.345 19.8533 109.319 20.1067 109.265 20.24C109.239 20.3733 109.199 20.4667 109.145 20.52C109.119 20.5733 109.052 20.64 108.945 20.72C108.865 20.8 108.772 20.8933 108.665 21C108.585 21.08 108.145 21.5867 107.345 22.52C106.545 23.4267 106.092 23.96 105.985 24.12C105.905 24.2533 105.865 24.44 105.865 24.68C105.865 24.8933 105.959 25 106.145 25C106.332 25 106.492 24.9467 106.625 24.84C107.612 24.2267 109.865 22.48 113.385 19.6C114.105 19.0933 114.585 18.84 114.825 18.84C115.065 18.84 115.305 18.96 115.545 19.2C115.812 19.4133 115.945 19.5867 115.945 19.72C115.945 20.4933 115.105 22.08 113.425 24.48C111.772 26.8533 109.719 29.6267 107.265 32.8C104.812 36 103.185 38.2 102.385 39.4C101.585 40.6 100.812 41.2 100.065 41.2C99.692 41.2 99.3186 41 98.9453 40.6C98.572 40.2267 98.3853 39.76 98.3853 39.2C98.3853 38.6667 98.4253 38.16 98.5053 37.68C98.5853 37.2267 98.8386 36.6267 99.2653 35.88C99.692 35.1333 100.252 34.32 100.945 33.44C101.639 32.5867 102.252 31.8267 102.785 31.16C103.345 30.52 103.972 29.8133 104.665 29.04C105.385 28.2667 105.785 27.8267 105.865 27.72C105.972 27.5867 106.025 27.48 106.025 27.4C106.025 27.32 105.985 27.28 105.905 27.28C105.852 27.28 105.239 27.6 104.065 28.24C102.919 28.88 101.972 29.2 101.225 29.2C100.505 29.2 99.9586 28.84 99.5853 28.12C99.2386 27.4 99.0653 26.8133 99.0653 26.36ZM127.051 20.52C127.051 21.24 127.478 21.6 128.331 21.6C129.131 21.6 130.011 21.4 130.971 21C131.931 20.6 132.451 20.4 132.531 20.4C132.611 20.4 132.691 20.4667 132.771 20.6C132.878 20.7333 132.931 20.8667 132.931 21C132.931 21.2933 132.305 21.68 131.051 22.16C129.825 22.6133 128.931 22.84 128.371 22.84C127.811 22.84 127.411 22.84 127.171 22.84C126.958 22.8133 126.785 22.9467 126.651 23.24C124.678 26.9467 122.718 29.28 120.771 30.24C119.918 30.6667 119.011 30.88 118.051 30.88C117.118 30.88 116.345 30.5733 115.731 29.96C115.145 29.32 114.851 28.32 114.851 26.96C114.851 25.0667 115.465 23.3067 116.691 21.68C117.945 20.0267 119.358 18.7867 120.931 17.96C122.505 17.1333 123.931 16.72 125.211 16.72C127.371 16.96 128.451 17.6133 128.451 18.68C128.451 18.9733 128.371 19.24 128.211 19.48C128.078 19.6933 127.958 19.8267 127.851 19.88C127.771 19.9067 127.665 19.9333 127.531 19.96C127.211 20.04 127.051 20.2267 127.051 20.52ZM123.771 22.36C122.918 23 122.078 23.8133 121.251 24.8C120.451 25.7867 120.051 26.6 120.051 27.24C120.051 27.8533 120.225 28.16 120.571 28.16C121.105 28.16 122.078 27.3467 123.491 25.72C124.931 24.0667 125.651 22.7067 125.651 21.64C125.651 21.48 125.545 21.4 125.331 21.4C125.145 21.4 124.625 21.72 123.771 22.36ZM135.291 27.6C133.691 28.5867 132.397 29.08 131.411 29.08C130.424 29.08 129.677 28.7333 129.171 28.04C128.664 27.3467 128.411 26.72 128.411 26.16C128.411 25.6 128.584 24.96 128.931 24.24C129.277 23.52 129.811 22.72 130.531 21.84C131.277 20.96 132.131 20.1333 133.091 19.36C134.051 18.5867 135.224 17.9467 136.611 17.44C138.024 16.9067 139.491 16.64 141.011 16.64C141.651 16.64 142.384 16.88 143.211 17.36C144.037 17.8133 144.451 18.3733 144.451 19.04C144.451 19.4933 144.077 19.8133 143.331 20C141.304 20.56 139.304 21.4267 137.331 22.6C135.384 23.7467 134.411 24.8133 134.411 25.8C134.411 26.0667 134.531 26.2 134.771 26.2C135.624 26.2 137.171 25.28 139.411 23.44C141.677 21.6 142.851 20.68 142.931 20.68C143.304 20.68 143.491 20.9333 143.491 21.44C143.491 22.6133 142.891 24.4533 141.691 26.96C140.491 29.4667 139.011 32 137.251 34.56C135.517 37.1467 133.504 39.4133 131.211 41.36C128.917 43.3067 126.811 44.28 124.891 44.28C124.597 44.28 124.251 43.9733 123.851 43.36C123.424 42.7733 123.211 42.2933 123.211 41.92C123.211 41.5467 123.224 41.32 123.251 41.24C123.517 40.28 125.237 38.64 128.411 36.32C129.717 35.3867 131.011 34.4133 132.291 33.4C133.571 32.4133 134.651 31.3467 135.531 30.2C136.411 29.08 136.851 28.0267 136.851 27.04C136.851 26.9867 136.757 26.96 136.571 26.96C136.384 26.96 135.957 27.1733 135.291 27.6ZM142.188 30.44C141.788 30.0667 141.588 29.5867 141.588 29C141.588 27.1333 142.695 25.0133 144.908 22.64C147.148 20.2667 149.228 18.9067 151.148 18.56C152.348 18.56 152.948 19.2667 152.948 20.68C152.948 21.1333 152.348 22.2 151.148 23.88C149.948 25.56 148.575 27.1733 147.028 28.72C145.482 30.2667 144.388 31.04 143.748 31.04C143.108 31.04 142.588 30.84 142.188 30.44ZM153.668 17.28C154.948 17.1467 156.002 16.6 156.828 15.64C157.655 14.6533 158.068 13.8133 158.068 13.12C158.068 12.0267 157.522 11.48 156.428 11.48C155.682 11.48 154.802 11.8133 153.788 12.48C152.775 13.1467 152.202 14.12 152.068 15.4L152.108 15.84C152.162 16.16 152.322 16.48 152.588 16.8C152.855 17.12 153.215 17.28 153.668 17.28Z" fill="white"/>
</svg>
